<?xml version="1.0" encoding="UTF-8"?>
<svg xmlns="http://www.w3.org/2000/svg" xmlns:xlink="http://www.w3.org/1999/xlink" viewBox="0 0 64 64" width="64px" height="64px">
<g id="surface362486">
<path style=" stroke:none;fill-rule:nonzero;fill:rgb(39.215687%,100%,85.490197%);fill-opacity:1;" d="M 10 8 C 6.703125 8 4 10.703125 4 14 L 4 50 C 4 53.296875 6.703125 56 10 56 L 54 56 C 57.296875 56 60 53.296875 60 50 L 60 22 C 60 18.703125 57.296875 16 54 16 L 27.1875 16 L 24.578125 11.15625 C 23.53125 9.203125 21.5 8 19.296875 8 Z M 10 12 L 19.296875 12 C 20.03125 12 20.703125 12.40625 21.0625 13.046875 L 22.65625 16 L 8 16 L 8 14 C 8 12.875 8.875 12 10 12 Z M 8 20 L 54 20 C 55.125 20 56 20.875 56 22 L 56 50 C 56 51.125 55.125 52 54 52 L 10 52 C 8.875 52 8 51.125 8 50 Z M 8 20 "/>
</g>
</svg>
