<?xml version="1.0" encoding="UTF-8"?>
<svg xmlns="http://www.w3.org/2000/svg" xmlns:xlink="http://www.w3.org/1999/xlink" viewBox="0 0 32 32" width="32px" height="32px">
<g id="surface371518">
<path style=" stroke:none;fill-rule:nonzero;fill:rgb(39.215687%,100%,85.490197%);fill-opacity:1;" d="M 21.210938 2.046875 L 19.796875 3.453125 L 24.335938 8 L 20.25 8 C 16 8 12.421875 9.867188 9.953125 12.765625 C 7.484375 15.664062 6.078125 19.570312 6 23.726562 C 6 23.84375 6 23.929688 6 24 L 8 24 C 8 23.898438 8 23.820312 8 23.773438 C 8.070312 20.03125 9.335938 16.5625 11.46875 14.0625 C 13.609375 11.5625 16.578125 10 20.25 10 L 24.335938 10 L 19.796875 14.546875 L 21.210938 15.953125 L 28.164062 9 Z M 2 8 L 2 25 C 2 26.648438 3.351562 28 5 28 L 25 28 C 26.648438 28 28 26.648438 28 25 L 28 18 L 26 18 L 26 25 C 26 25.5625 25.5625 26 25 26 L 5 26 C 4.4375 26 4 25.5625 4 25 L 4 8 Z M 2 8 "/>
</g>
</svg>
