<?xml version="1.0" encoding="UTF-8"?>
<svg xmlns="http://www.w3.org/2000/svg" xmlns:xlink="http://www.w3.org/1999/xlink" viewBox="0 0 64 64" width="64px" height="64px">
<g id="surface371475">
<path style=" stroke:none;fill-rule:nonzero;fill:rgb(39.215687%,100%,85.490197%);fill-opacity:1;" d="M 42.421875 4.09375 L 39.59375 6.90625 L 48.671875 16 L 40.5 16 C 32 16 24.84375 19.734375 19.90625 25.53125 C 14.96875 31.328125 12.15625 39.140625 12 47.453125 C 12 47.6875 12 47.859375 12 48 L 16 48 C 16 47.796875 16 47.640625 16 47.546875 C 16.140625 40.0625 18.671875 33.125 22.9375 28.125 C 27.21875 23.125 33.15625 20 40.5 20 L 48.671875 20 L 39.59375 29.09375 L 42.421875 31.90625 L 56.328125 18 Z M 4 16 L 4 50 C 4 53.296875 6.703125 56 10 56 L 50 56 C 53.296875 56 56 53.296875 56 50 L 56 36 L 52 36 L 52 50 C 52 51.125 51.125 52 50 52 L 10 52 C 8.875 52 8 51.125 8 50 L 8 16 Z M 4 16 "/>
</g>
</svg>
